# xmcd
#
# Track frame offsets: 
#        150
#        12447
#        28255
#        41940
#        57882
#        70580
#        83160
#        99925
#        115329
#        135140
#        151280
#        163900
#        180847
#        196220
#
# Disc length: 2782 seconds
#
# Revision: 2
# Processed by: cddbd v1.5.2PL0 Copyright (c) Steve Scherf et al.
# Submitted via: ExactAudioCopy v0.95a5
#
DISCID=ac0adc0e
DTITLE=Various Artist - Country Hot Hits #36
DYEAR=1900
DGENRE=
TTITLE0=Ken Mellons - Jukebox Junkie
TTITLE1=Travis Tritt - Ten Feet Tall And Bulletproof
TTITLE2=Tracy Byrd - Watermelon Crawl
TTITLE3=Confederate Railroad - Elvis And Andy
TTITLE4=Joe Diffie - Third Rock From The Sun
TTITLE5=Trisha Yearwood - XXX's And OOO's
TTITLE6=Mark Chesnutt - She Dreams
TTITLE7=Doug Stone - More Love
TTITLE8=Reba McEntire - She Thinks His Name Was John
TTITLE9=Neal McCoy - City Put The Country Back In Me - The
TTITLE10=David Lee Murphy - Fish Ain't Bitin
TTITLE11=Kathy Mattea - Nobody's Gonna Rain On Our Parade
TTITLE12=Collin Raye - Man Of My Word
TTITLE13=Pam Tillis - When You Walk In The Room
EXTD=
EXTT0=Mellons - Ken
EXTT1=Tritt - Travis
EXTT2=Byrd - Tracy
EXTT3=Confederate Railroad
EXTT4=Diffie - Joe
EXTT5=Yearwood - Trisha
EXTT6=Chesnutt - Mark
EXTT7=Stone - Doug
EXTT8=McEntire - Reba
EXTT9=McCoy - Neal
EXTT10=Murphy - David Lee
EXTT11=Mattea - Kathy
EXTT12=Raye - Collin
EXTT13=Tillis - Pam
PLAYORDER=
